<svg xmlns="http://www.w3.org/2000/svg" width="640" height="640" viewBox="0 0 640 640">
  <defs>
    <linearGradient id="bg" x1="0" y1="0" x2="1" y2="1">
      <stop offset="0" stop-color="#ff4fa3"/>
      <stop offset="1" stop-color="#ffe38a"/>
    </linearGradient>
  </defs>
  <rect width="640" height="640" rx="64" fill="url(#bg)"/>
  <path d="M90 120c90-70 210-70 300 0s120 210 20 300-260 120-360 20S0 190 90 120z" fill="#ffffff" opacity="0.18"/>
  <g transform="translate(110 150)">
    <ellipse cx="210" cy="320" rx="180" ry="58" fill="#0f172a" opacity="0.10"/>
    <path d="M60 300c0 70 66 120 150 120s150-50 150-120v-90H60z" fill="#fff" opacity="0.92"/>
    <path d="M60 210c0-60 66-110 150-110s150 50 150 110" fill="#fff" opacity="0.78"/>
    <path d="M95 210c18-38 61-72 115-72s97 34 115 72" fill="#8cd3ff" opacity="0.22"/>
    <!-- banana slices -->
    <g opacity="0.95">
      <ellipse cx="140" cy="190" rx="28" ry="18" fill="#ffe38a"/>
      <ellipse cx="210" cy="170" rx="30" ry="19" fill="#ffe38a"/>
      <ellipse cx="285" cy="195" rx="28" ry="18" fill="#ffe38a"/>
      <circle cx="140" cy="190" r="6" fill="#1f2937" opacity="0.25"/>
      <circle cx="210" cy="170" r="6" fill="#1f2937" opacity="0.25"/>
      <circle cx="285" cy="195" r="6" fill="#1f2937" opacity="0.25"/>
    </g>
    <path d="M90 150c40-30 90-40 140-35" stroke="#111827" stroke-width="10" stroke-linecap="round" opacity="0.25"/>
  </g>
</svg>
