<svg xmlns="http://www.w3.org/2000/svg" width="640" height="640" viewBox="0 0 640 640">
  <defs>
    <linearGradient id="bg" x1="0" y1="0" x2="1" y2="1">
      <stop offset="0" stop-color="#8cd3ff"/>
      <stop offset="1" stop-color="#ffe38a"/>
    </linearGradient>
  </defs>
  <rect width="640" height="640" rx="64" fill="url(#bg)"/>
  <circle cx="520" cy="520" r="210" fill="#fff" opacity="0.18"/>
  <g transform="translate(110 160)">
    <rect x="60" y="260" width="300" height="120" rx="44" fill="#fff" opacity="0.92"/>
    <rect x="80" y="280" width="260" height="80" rx="34" fill="#fff3ea" opacity="0.95"/>
    <!-- rice grains -->
    <g opacity="0.85">
      <rect x="110" y="305" width="38" height="12" rx="6" fill="#fff"/>
      <rect x="160" y="320" width="36" height="12" rx="6" fill="#fff"/>
      <rect x="215" y="305" width="40" height="12" rx="6" fill="#fff"/>
      <rect x="260" y="322" width="38" height="12" rx="6" fill="#fff"/>
      <rect x="135" y="338" width="40" height="12" rx="6" fill="#fff"/>
      <rect x="210" y="340" width="42" height="12" rx="6" fill="#fff"/>
    </g>
    <path d="M90 130c70-55 160-55 230 0" stroke="#111827" stroke-width="14" stroke-linecap="round" opacity="0.22"/>
  </g>
</svg>
