<svg xmlns="http://www.w3.org/2000/svg" width="640" height="640" viewBox="0 0 640 640">
  <defs>
    <linearGradient id="bg" x1="0" y1="0" x2="1" y2="1">
      <stop offset="0" stop-color="#6fe7d7"/>
      <stop offset="1" stop-color="#8cd3ff"/>
    </linearGradient>
  </defs>
  <rect width="640" height="640" rx="64" fill="url(#bg)"/>
  <circle cx="520" cy="160" r="160" fill="#fff" opacity="0.16"/>
  <g transform="translate(120 150)">
    <ellipse cx="200" cy="360" rx="190" ry="60" fill="#0f172a" opacity="0.10"/>
    <circle cx="200" cy="290" r="150" fill="#fff" opacity="0.92"/>
    <circle cx="200" cy="290" r="120" fill="#fff3ea" opacity="0.95"/>
    <!-- leafy blobs -->
    <g opacity="0.95">
      <path d="M140 330c-40-30-55-80-25-120 35-45 95-35 125 0 35 40 15 95-25 120-25 15-50 12-75 0z" fill="#6fe7d7"/>
      <path d="M240 350c-35-25-50-70-25-110 30-45 90-40 120-5 30 38 15 85-15 110-25 20-55 22-80 5z" fill="#8cd3ff"/>
      <circle cx="210" cy="260" r="12" fill="#d9c2ff" opacity="0.8"/>
      <circle cx="160" cy="250" r="10" fill="#ffe38a" opacity="0.85"/>
    </g>
  </g>
</svg>
