<svg xmlns="http://www.w3.org/2000/svg" width="640" height="640" viewBox="0 0 640 640">
  <defs>
    <linearGradient id="bg" x1="0" y1="0" x2="1" y2="1">
      <stop offset="0" stop-color="#ffe38a"/>
      <stop offset="1" stop-color="#8cd3ff"/>
    </linearGradient>
  </defs>
  <rect width="640" height="640" rx="64" fill="url(#bg)"/>
  <circle cx="170" cy="150" r="130" fill="#ffffff" opacity="0.25"/>
  <circle cx="520" cy="520" r="190" fill="#ffffff" opacity="0.18"/>
  <g transform="translate(110 140)">
    <ellipse cx="210" cy="320" rx="180" ry="58" fill="#0f172a" opacity="0.10"/>
    <path d="M60 300c0 70 66 120 150 120s150-50 150-120v-90H60z" fill="#fff" opacity="0.92"/>
    <path d="M60 210c0-60 66-110 150-110s150 50 150 110" fill="#fff" opacity="0.78"/>
    <path d="M95 210c18-38 61-72 115-72s97 34 115 72" fill="#ff4fa3" opacity="0.22"/>
    <circle cx="140" cy="200" r="16" fill="#ff4fa3" opacity="0.75"/>
    <circle cx="190" cy="175" r="10" fill="#6fe7d7" opacity="0.9"/>
    <circle cx="250" cy="205" r="14" fill="#8cd3ff" opacity="0.9"/>
    <circle cx="300" cy="182" r="11" fill="#d9c2ff" opacity="0.9"/>
    <rect x="265" y="30" width="18" height="210" rx="9" fill="#111827" opacity="0.55"/>
    <path d="M270 30c10 40 20 70 30 90" stroke="#111827" stroke-width="12" stroke-linecap="round" opacity="0.45"/>
  </g>
</svg>
