<svg xmlns="http://www.w3.org/2000/svg" width="640" height="640" viewBox="0 0 640 640">
  <defs>
    <linearGradient id="bg" x1="0" y1="0" x2="1" y2="1">
      <stop offset="0" stop-color="#d9c2ff"/>
      <stop offset="1" stop-color="#8cd3ff"/>
    </linearGradient>
  </defs>
  <rect width="640" height="640" rx="64" fill="url(#bg)"/>
  <circle cx="160" cy="520" r="170" fill="#fff" opacity="0.20"/>
  <circle cx="520" cy="140" r="140" fill="#fff" opacity="0.18"/>
  <g transform="translate(120 150)">
    <rect x="40" y="270" width="360" height="110" rx="38" fill="#fff" opacity="0.92"/>
    <rect x="55" y="288" width="330" height="76" rx="28" fill="#fff3ea" opacity="0.9"/>
    <!-- grains -->
    <g opacity="0.85">
      <circle cx="110" cy="326" r="10" fill="#ffe38a"/>
      <circle cx="150" cy="312" r="9" fill="#ffe38a"/>
      <circle cx="195" cy="332" r="11" fill="#ffe38a"/>
      <circle cx="245" cy="312" r="9" fill="#ffe38a"/>
      <circle cx="285" cy="334" r="10" fill="#ffe38a"/>
      <circle cx="325" cy="318" r="9" fill="#ffe38a"/>
    </g>
    <path d="M80 120c70-50 150-50 220 0" stroke="#111827" stroke-width="14" stroke-linecap="round" opacity="0.25"/>
    <path d="M110 150c55-38 115-38 170 0" stroke="#111827" stroke-width="10" stroke-linecap="round" opacity="0.18"/>
  </g>
</svg>
