<svg xmlns="http://www.w3.org/2000/svg" width="640" height="640" viewBox="0 0 640 640">
  <defs>
    <linearGradient id="bg" x1="0" y1="0" x2="1" y2="1">
      <stop offset="0" stop-color="#ffe38a"/>
      <stop offset="1" stop-color="#ff4fa3"/>
    </linearGradient>
  </defs>
  <rect width="640" height="640" rx="64" fill="url(#bg)"/>
  <path d="M110 520c-70-120-40-260 70-330s250-40 330 70 30 260-90 320-240 60-310-60z" fill="#fff" opacity="0.16"/>
  <g transform="translate(120 160)">
    <ellipse cx="200" cy="350" rx="190" ry="60" fill="#0f172a" opacity="0.10"/>
    <circle cx="200" cy="280" r="150" fill="#fff" opacity="0.92"/>
    <circle cx="200" cy="280" r="120" fill="#fff3ea" opacity="0.95"/>
    <!-- sweet potato wedge -->
    <path d="M130 330c40-95 150-130 220-60 25 25 25 60 0 85-60 60-170 55-220-25z" fill="#ffe38a" opacity="0.95"/>
    <path d="M150 326c30-62 110-90 160-45" stroke="#111827" stroke-width="10" stroke-linecap="round" opacity="0.22"/>
    <path d="M180 360c36 22 90 24 140 0" stroke="#111827" stroke-width="10" stroke-linecap="round" opacity="0.18"/>
  </g>
</svg>
